<?xml version="1.0" encoding="UTF-8"?>
<svg id="logo-47" xmlns="http://www.w3.org/2000/svg" xmlns:xlink="http://www.w3.org/1999/xlink" viewBox="0 0 35.93 29">
  <defs>
    <linearGradient id="Unbenannter_Verlauf" data-name="Unbenannter Verlauf" x1="33.61" y1="-170.22" x2="3.06" y2="-170.22" gradientTransform="translate(0 -156.22) scale(1 -1)" gradientUnits="userSpaceOnUse">
      <stop offset="0" stop-color="#64c2db"/>
      <stop offset=".51" stop-color="#7476ed"/>
      <stop offset="1" stop-color="#e56f8c"/>
    </linearGradient>
  </defs>
  <path d="M11.2,24.92c-2.99,2.99-8.04,2.97-9.46-1.01-.28-.78-.5-1.58-.66-2.4-.66-3.34-.32-6.8.98-9.94,1.3-3.14,3.51-5.83,6.34-7.72,2.83-1.89,6.16-2.9,9.56-2.9s6.73,1.01,9.56,2.9c2.83,1.89,5.04,4.58,6.34,7.72,1.3,3.14,1.64,6.6.98,9.94-.16.82-.38,1.62-.66,2.4-1.41,3.98-6.47,3.99-9.46,1.01l-4.61-4.61c-.44-.44-.39-1.17-.27-1.78.07-.37.04-.76-.11-1.11s-.39-.65-.7-.86c-.31-.21-.68-.32-1.06-.32s-.75.11-1.06.32c-.31.21-.56.51-.71.86s-.18.73-.11,1.11c.12.61.17,1.34-.27,1.78l-4.61,4.61Z" fill="url(#Unbenannter_Verlauf)"/>
</svg>