<?xml version="1.0" encoding="UTF-8"?>
<svg id="logo-47" xmlns="http://www.w3.org/2000/svg" xmlns:xlink="http://www.w3.org/1999/xlink" viewBox="0 0 223.76 29">
  <defs>
    <linearGradient id="Unbenannter_Verlauf" data-name="Unbenannter Verlauf" x1="32.85" y1="16.95" x2="2.31" y2="16.95" gradientTransform="translate(0 30) scale(1 -1)" gradientUnits="userSpaceOnUse">
      <stop offset="0" stop-color="#64c2db"/>
      <stop offset=".51" stop-color="#7476ed"/>
      <stop offset="1" stop-color="#e56f8c"/>
    </linearGradient>
  </defs>
  <path d="M10.45,23.97c-2.99,2.99-8.04,2.97-9.46-1.01-.28-.78-.5-1.58-.66-2.4C-.33,17.23,0,13.77,1.31,10.62c1.3-3.14,3.51-5.83,6.34-7.72C10.48,1.01,13.8,0,17.21,0s6.73,1.01,9.56,2.9c2.83,1.89,5.04,4.58,6.34,7.72,1.3,3.14,1.64,6.6.98,9.94-.16.82-.38,1.62-.66,2.4-1.41,3.98-6.47,3.99-9.46,1.01l-4.61-4.61c-.44-.44-.39-1.17-.27-1.78.07-.37.04-.76-.11-1.11s-.39-.65-.7-.86c-.31-.21-.68-.32-1.06-.32s-.75.11-1.06.32c-.31.21-.56.51-.71.86s-.18.73-.11,1.11c.12.61.17,1.34-.27,1.78l-4.61,4.61Z" fill="url(#Unbenannter_Verlauf)"/>
  <g>
    <path d="M46.03,21.31c-.9,0-1.81-.11-2.74-.33-.93-.22-1.71-.52-2.36-.89l.77-3.49c.83.44,1.6.73,2.32.87.72.14,1.39.2,2,.2.57,0,1-.09,1.3-.28.29-.19.44-.44.44-.75,0-.29-.16-.51-.49-.67-.33-.16-.75-.32-1.27-.46s-1.07-.31-1.66-.5c-.59-.19-1.14-.45-1.66-.77-.52-.32-.95-.75-1.27-1.29-.33-.54-.49-1.21-.49-2.02,0-1.03.25-1.92.75-2.67.5-.75,1.21-1.33,2.14-1.73.93-.41,2.02-.61,3.28-.61.84,0,1.67.11,2.47.33.81.22,1.45.52,1.94.89l-.73,3.15c-.73-.3-1.38-.52-1.96-.65s-1.12-.2-1.64-.2c-.6,0-1.06.09-1.37.26-.31.17-.47.4-.47.69s.16.49.49.66.75.34,1.26.49c.51.16,1.06.34,1.65.54.59.2,1.14.46,1.65.79.51.33.93.76,1.26,1.29s.49,1.19.49,1.99c0,1.66-.54,2.93-1.62,3.83-1.08.9-2.57,1.35-4.49,1.35Z" fill="#3a3b7b"/>
    <path d="M60.47,18.14c.41,0,.85-.04,1.32-.13.46-.09.94-.24,1.42-.47l.51,2.76c-.53.27-1.1.48-1.72.62s-1.33.21-2.13.21c-1.44,0-2.65-.24-3.63-.71-.98-.47-1.72-1.12-2.22-1.95-.5-.83-.75-1.79-.75-2.87s.27-2.08.8-2.91c.54-.83,1.25-1.47,2.15-1.93.9-.46,1.89-.69,2.98-.69,1.61,0,2.85.5,3.71,1.51.86,1.01,1.28,2.44,1.28,4.29l-6.38.81c.47.96,1.36,1.43,2.66,1.43ZM57.47,14.73l3.36-.71c-.06-.46-.21-.8-.47-1.02-.26-.22-.58-.33-.96-.33-.57,0-1.02.2-1.36.59-.34.39-.52.88-.57,1.47Z" fill="#3a3b7b"/>
    <path d="M71.2,21.14c-1.2,0-2.23-.24-3.11-.71-.87-.47-1.54-1.12-2.01-1.94-.47-.82-.71-1.77-.71-2.84s.24-2.01.73-2.85c.48-.84,1.17-1.51,2.04-1.99.88-.49,1.9-.73,3.05-.73,1.38,0,2.48.29,3.28.86l-.47,2.91c-.36-.16-.69-.27-1.01-.33-.31-.06-.61-.1-.9-.1-.7,0-1.25.2-1.66.59-.41.39-.61.92-.61,1.6s.2,1.19.6,1.6c.4.41.93.61,1.58.61.57,0,1.24-.12,2.01-.36l.41,3c-.47.23-.96.4-1.47.51s-1.1.17-1.77.17Z" fill="#3a3b7b"/>
    <path d="M76.29,20.97v-10.73h4.45v2.68c.29-.97.73-1.68,1.34-2.14.61-.46,1.33-.69,2.17-.69l.54,3.79c-.34-.04-.68-.06-1.01-.06-1.98,0-2.98.81-2.98,2.44v4.71h-4.52Z" fill="#3a3b7b"/>
    <path d="M92.42,18.14c.41,0,.85-.04,1.32-.13.46-.09.94-.24,1.42-.47l.51,2.76c-.53.27-1.1.48-1.72.62s-1.33.21-2.13.21c-1.44,0-2.65-.24-3.63-.71-.98-.47-1.72-1.12-2.22-1.95s-.75-1.79-.75-2.87.27-2.08.8-2.91,1.25-1.47,2.15-1.93c.9-.46,1.89-.69,2.98-.69,1.61,0,2.85.5,3.71,1.51s1.29,2.44,1.29,4.29l-6.38.81c.47.96,1.36,1.43,2.66,1.43ZM89.42,14.73l3.36-.71c-.06-.46-.21-.8-.47-1.02-.26-.22-.58-.33-.96-.33-.57,0-1.03.2-1.36.59-.34.39-.52.88-.57,1.47Z" fill="#3a3b7b"/>
    <path d="M102.44,21.14c-1.01,0-1.84-.17-2.47-.51-.63-.34-1.1-.81-1.38-1.39-.29-.59-.43-1.24-.43-1.97v-4.37h-1.37v-2.66h1.69l1.99-3.38h2.21v3.38h2.48v2.66h-2.48v3.75c0,.33.11.58.32.76.21.18.49.27.83.27s.69-.09,1.03-.26l.32,2.98c-.34.24-.78.43-1.31.56-.53.13-1.01.19-1.44.19Z" fill="#3a3b7b"/>
  </g>
  <g>
    <path d="M115.76,21.31c-.9,0-1.81-.11-2.74-.33-.93-.22-1.71-.52-2.36-.89l.77-3.49c.83.44,1.6.73,2.32.87.72.14,1.39.2,2,.2.57,0,1-.09,1.29-.28s.44-.44.44-.75c0-.29-.16-.51-.49-.67s-.75-.32-1.27-.46-1.07-.31-1.66-.5c-.59-.19-1.14-.45-1.66-.77s-.95-.75-1.27-1.29c-.33-.54-.49-1.21-.49-2.02,0-1.03.25-1.92.75-2.67.5-.75,1.21-1.33,2.14-1.73.93-.41,2.02-.61,3.28-.61.84,0,1.67.11,2.47.33.81.22,1.45.52,1.94.89l-.73,3.15c-.73-.3-1.38-.52-1.96-.65s-1.12-.2-1.64-.2c-.6,0-1.06.09-1.37.26-.31.17-.47.4-.47.69s.16.49.49.66c.33.17.75.34,1.26.49s1.06.34,1.65.54c.58.2,1.13.46,1.65.79.51.33.94.76,1.26,1.29s.49,1.19.49,1.99c0,1.66-.54,2.93-1.62,3.83s-2.57,1.35-4.49,1.35Z" fill="#3a3b7b"/>
    <path d="M128.83,21.14c-1.2,0-2.23-.24-3.11-.71-.87-.47-1.54-1.12-2.01-1.94-.47-.82-.71-1.77-.71-2.84s.24-2.01.73-2.85c.49-.84,1.17-1.51,2.04-1.99.88-.49,1.9-.73,3.05-.73,1.38,0,2.48.29,3.28.86l-.47,2.91c-.36-.16-.69-.27-1.01-.33-.31-.06-.61-.1-.9-.1-.7,0-1.25.2-1.66.59-.41.39-.61.92-.61,1.6s.2,1.19.6,1.6c.4.41.93.61,1.58.61.57,0,1.24-.12,2.01-.36l.41,3c-.47.23-.96.4-1.47.51-.51.11-1.1.17-1.77.17Z" fill="#3a3b7b"/>
    <path d="M133.92,20.97v-10.73h4.45v2.68c.29-.97.73-1.68,1.34-2.14.61-.46,1.33-.69,2.17-.69l.54,3.79c-.34-.04-.68-.06-1.01-.06-1.98,0-2.98.81-2.98,2.44v4.71h-4.52Z" fill="#3a3b7b"/>
    <path d="M145.92,9.06c-.66,0-1.22-.21-1.69-.63-.47-.42-.71-.94-.71-1.55,0-.43.11-.8.34-1.12s.53-.57.9-.76.76-.28,1.16-.28c.44,0,.85.1,1.21.3.36.2.66.46.88.79.22.33.33.69.33,1.07,0,.43-.12.81-.35,1.13-.24.33-.54.59-.9.77-.36.19-.75.28-1.17.28ZM147.67,21.14c-.96,0-1.73-.17-2.32-.51s-1.02-.81-1.3-1.39c-.27-.59-.41-1.24-.41-1.97v-7.02h4.52v6.4c0,.33.1.58.29.76s.42.27.7.27c.29,0,.58-.09.88-.26l.24,2.98c-.31.24-.72.43-1.22.56s-.96.19-1.37.19Z" fill="#3a3b7b"/>
    <path d="M159.58,21.14c-.86,0-1.57-.18-2.14-.56-.57-.37-1.03-.91-1.37-1.61v1.99h-4.5V6.85l4.54-.66v6.25c.34-.81.83-1.41,1.47-1.79.63-.38,1.3-.57,2-.57,1,0,1.9.23,2.69.7.79.46,1.42,1.1,1.88,1.92.46.81.7,1.76.7,2.85s-.23,2.05-.7,2.89c-.46.84-1.09,1.5-1.88,1.98-.79.48-1.69.72-2.69.72ZM158.19,17.75c.61,0,1.13-.21,1.54-.62.41-.41.62-.92.62-1.52s-.21-1.11-.62-1.52-.93-.62-1.54-.62-1.08.2-1.5.59c-.41.39-.62.9-.62,1.51s.21,1.13.62,1.55c.41.42.91.63,1.5.63Z" fill="#3a3b7b"/>
    <path d="M174.68,21.14c-.86,0-1.57-.18-2.14-.56-.57-.37-1.03-.91-1.37-1.61v1.99h-4.5V6.85l4.54-.66v6.25c.34-.81.83-1.41,1.47-1.79.63-.38,1.3-.57,2-.57,1,0,1.9.23,2.69.7.79.46,1.42,1.1,1.88,1.92.46.81.7,1.76.7,2.85s-.23,2.05-.7,2.89c-.46.84-1.09,1.5-1.88,1.98-.79.48-1.69.72-2.69.72ZM173.29,17.75c.61,0,1.13-.21,1.54-.62.41-.41.62-.92.62-1.52s-.21-1.11-.62-1.52-.93-.62-1.54-.62-1.08.2-1.5.59c-.41.39-.62.9-.62,1.51s.21,1.13.62,1.55c.41.42.91.63,1.5.63Z" fill="#3a3b7b"/>
    <path d="M185.98,21.14c-1.01,0-1.84-.17-2.47-.51-.64-.34-1.1-.81-1.38-1.39-.29-.59-.43-1.24-.43-1.97V6.42l4.52-.66v10.88c0,.33.11.58.32.76s.49.27.83.27.69-.09,1.03-.26l.32,2.98c-.34.24-.78.43-1.31.56s-1.01.19-1.43.19Z" fill="#3a3b7b"/>
    <path d="M196.56,18.14c.41,0,.85-.04,1.32-.13.46-.09.94-.24,1.42-.47l.51,2.76c-.53.27-1.1.48-1.72.62s-1.33.21-2.13.21c-1.44,0-2.65-.24-3.63-.71-.98-.47-1.72-1.12-2.22-1.95-.5-.83-.75-1.79-.75-2.87s.27-2.08.8-2.91c.54-.83,1.25-1.47,2.15-1.93.9-.46,1.89-.69,2.98-.69,1.61,0,2.85.5,3.71,1.51s1.29,2.44,1.29,4.29l-6.38.81c.47.96,1.36,1.43,2.66,1.43ZM193.57,14.73l3.36-.71c-.06-.46-.21-.8-.47-1.02-.26-.22-.58-.33-.96-.33-.57,0-1.02.2-1.36.59-.34.39-.53.88-.57,1.47Z" fill="#3a3b7b"/>
    <path d="M202,20.97v-10.73h4.45v2.68c.29-.97.73-1.68,1.34-2.14.61-.46,1.33-.69,2.17-.69l.54,3.79c-.34-.04-.68-.06-1.01-.06-1.98,0-2.98.81-2.98,2.44v4.71h-4.52Z" fill="#3a3b7b"/>
    <path d="M215.24,21.14c-.64,0-1.29-.06-1.95-.19-.66-.13-1.25-.31-1.78-.54l.62-2.7c.33.17.78.32,1.35.44.57.12,1.08.18,1.52.18.71,0,1.07-.19,1.07-.58,0-.18-.11-.32-.33-.41-.22-.09-.51-.16-.86-.22-.35-.06-.72-.15-1.12-.26s-.77-.27-1.12-.49c-.35-.22-.64-.54-.86-.95-.22-.41-.33-.96-.33-1.63,0-1.13.45-2.03,1.34-2.7.89-.67,2.12-1.01,3.67-1.01.6,0,1.16.04,1.68.13.52.09,1.02.26,1.49.54l-.45,2.61c-.76-.31-1.55-.47-2.38-.47-.53,0-.91.04-1.15.13-.24.09-.35.23-.35.43,0,.16.11.28.34.36.23.09.52.17.89.25.36.08.75.19,1.15.32s.78.32,1.15.57c.36.24.66.57.89.97.23.41.34.93.34,1.57,0,1.14-.42,2.04-1.26,2.68-.84.64-2.03.96-3.56.96Z" fill="#3a3b7b"/>
  </g>
</svg>