<?xml version="1.0" encoding="UTF-8"?>
<svg id="logo-47" xmlns="http://www.w3.org/2000/svg" xmlns:xlink="http://www.w3.org/1999/xlink" version="1.1" viewBox="0 0 223.8 29">
  <!-- Generator: Adobe Illustrator 29.2.1, SVG Export Plug-In . SVG Version: 2.1.0 Build 116)  -->
  <defs>
    <style>
      .st0 {
        fill: url(#Unbenannter_Verlauf);
      }

      .st1 {
        fill: #fff;
      }
    </style>
    <linearGradient id="Unbenannter_Verlauf" data-name="Unbenannter Verlauf" x1="32.8" y1="1063" x2="2.3" y2="1063" gradientTransform="translate(0 -1050)" gradientUnits="userSpaceOnUse">
      <stop offset="0" stop-color="#64c2db"/>
      <stop offset=".5" stop-color="#7476ed"/>
      <stop offset="1" stop-color="#e56f8c"/>
    </linearGradient>
  </defs>
  <path class="st0" d="M10.4,24c-3,3-8,3-9.5-1-.3-.8-.5-1.6-.7-2.4-.7-3.3-.3-6.8,1-9.9,1.3-3.1,3.5-5.8,6.3-7.7,2.8-1.9,6.2-2.9,9.6-2.9s6.7,1,9.6,2.9c2.8,1.9,5,4.6,6.3,7.7,1.3,3.1,1.6,6.6,1,9.9-.2.8-.4,1.6-.7,2.4-1.4,4-6.5,4-9.5,1l-4.6-4.6c-.4-.4-.4-1.2-.3-1.8,0-.4,0-.8-.1-1.1s-.4-.6-.7-.9c-.3-.2-.7-.3-1.1-.3s-.8.1-1.1.3c-.3.2-.6.5-.7.9s-.2.7-.1,1.1c.1.6.2,1.3-.3,1.8l-4.6,4.6h0Z"/>
  <g>
    <path class="st1" d="M46,21.3c-.9,0-1.8-.1-2.7-.3s-1.7-.5-2.4-.9l.8-3.5c.8.4,1.6.7,2.3.9.7.1,1.4.2,2,.2s1,0,1.3-.3c.3-.2.4-.4.4-.8s-.2-.5-.5-.7-.8-.3-1.3-.5-1.1-.3-1.7-.5-1.1-.4-1.7-.8-1-.8-1.3-1.3c-.3-.5-.5-1.2-.5-2s.2-1.9.8-2.7,1.2-1.3,2.1-1.7c.9-.4,2-.6,3.3-.6s1.7.1,2.5.3c.8.2,1.5.5,1.9.9l-.7,3.2c-.7-.3-1.4-.5-2-.6s-1.1-.2-1.6-.2-1.1,0-1.4.3c-.3.2-.5.4-.5.7s.2.5.5.7.8.3,1.3.5c.5.2,1.1.3,1.7.5s1.1.5,1.7.8c.5.3.9.8,1.3,1.3s.5,1.2.5,2c0,1.7-.5,2.9-1.6,3.8-1.1.9-2.6,1.4-4.5,1.4h0Z"/>
    <path class="st1" d="M60.5,18.1c.4,0,.8,0,1.3-.1.5,0,.9-.2,1.4-.5l.5,2.8c-.5.3-1.1.5-1.7.6s-1.3.2-2.1.2c-1.4,0-2.7-.2-3.6-.7s-1.7-1.1-2.2-2-.8-1.8-.8-2.9.3-2.1.8-2.9c.5-.8,1.2-1.5,2.2-1.9s1.9-.7,3-.7c1.6,0,2.8.5,3.7,1.5s1.3,2.4,1.3,4.3l-6.4.8c.5,1,1.4,1.4,2.7,1.4h0ZM57.5,14.7l3.4-.7c0-.5-.2-.8-.5-1-.3-.2-.6-.3-1-.3-.6,0-1,.2-1.4.6s-.5.9-.6,1.5Z"/>
    <path class="st1" d="M71.2,21.1c-1.2,0-2.2-.2-3.1-.7-.9-.5-1.5-1.1-2-1.9s-.7-1.8-.7-2.8.2-2,.7-2.9c.5-.8,1.2-1.5,2-2,.9-.5,1.9-.7,3.1-.7s2.5.3,3.3.9l-.5,2.9c-.4-.2-.7-.3-1-.3-.3,0-.6-.1-.9-.1-.7,0-1.2.2-1.7.6s-.6.9-.6,1.6.2,1.2.6,1.6.9.6,1.6.6,1.2-.1,2-.4l.4,3c-.5.2-1,.4-1.5.5s-1.1.2-1.8.2h0Z"/>
    <path class="st1" d="M76.3,21v-10.7h4.4v2.7c.3-1,.7-1.7,1.3-2.1.6-.5,1.3-.7,2.2-.7l.5,3.8c-.3,0-.7,0-1,0-2,0-3,.8-3,2.4v4.7h-4.5,0Z"/>
    <path class="st1" d="M92.4,18.1c.4,0,.8,0,1.3-.1.5,0,.9-.2,1.4-.5l.5,2.8c-.5.3-1.1.5-1.7.6s-1.3.2-2.1.2c-1.4,0-2.7-.2-3.6-.7-1-.5-1.7-1.1-2.2-2s-.8-1.8-.8-2.9.3-2.1.8-2.9,1.2-1.5,2.2-1.9,1.9-.7,3-.7c1.6,0,2.8.5,3.7,1.5s1.3,2.4,1.3,4.3l-6.4.8c.5,1,1.4,1.4,2.7,1.4h0ZM89.4,14.7l3.4-.7c0-.5-.2-.8-.5-1-.3-.2-.6-.3-1-.3-.6,0-1,.2-1.4.6-.3.4-.5.9-.6,1.5Z"/>
    <path class="st1" d="M102.4,21.1c-1,0-1.8-.2-2.5-.5-.6-.3-1.1-.8-1.4-1.4-.3-.6-.4-1.2-.4-2v-4.4h-1.4v-2.7h1.7l2-3.4h2.2v3.4h2.5v2.7h-2.5v3.8c0,.3.1.6.3.8s.5.3.8.3.7,0,1-.3l.3,3c-.3.2-.8.4-1.3.6s-1,.2-1.4.2h0Z"/>
  </g>
  <g>
    <path class="st1" d="M115.8,21.3c-.9,0-1.8-.1-2.7-.3s-1.7-.5-2.4-.9l.8-3.5c.8.4,1.6.7,2.3.9.7.1,1.4.2,2,.2s1,0,1.3-.3.4-.4.4-.8-.2-.5-.5-.7-.8-.3-1.3-.5-1.1-.3-1.7-.5c-.6-.2-1.1-.4-1.7-.8s-.9-.8-1.3-1.3c-.3-.5-.5-1.2-.5-2s.2-1.9.8-2.7,1.2-1.3,2.1-1.7c.9-.4,2-.6,3.3-.6s1.7.1,2.5.3c.8.2,1.4.5,1.9.9l-.7,3.2c-.7-.3-1.4-.5-2-.6s-1.1-.2-1.6-.2-1.1,0-1.4.3c-.3.2-.5.4-.5.7s.2.5.5.7c.3.2.8.3,1.3.5s1.1.3,1.7.5c.6.2,1.1.5,1.7.8.5.3.9.8,1.3,1.3s.5,1.2.5,2c0,1.7-.5,2.9-1.6,3.8s-2.6,1.4-4.5,1.4h0Z"/>
    <path class="st1" d="M128.8,21.1c-1.2,0-2.2-.2-3.1-.7-.9-.5-1.5-1.1-2-1.9s-.7-1.8-.7-2.8.2-2,.7-2.9c.5-.8,1.2-1.5,2-2,.9-.5,1.9-.7,3.1-.7s2.5.3,3.3.9l-.5,2.9c-.4-.2-.7-.3-1-.3-.3,0-.6-.1-.9-.1-.7,0-1.2.2-1.7.6s-.6.9-.6,1.6.2,1.2.6,1.6c.4.4.9.6,1.6.6s1.2-.1,2-.4l.4,3c-.5.2-1,.4-1.5.5s-1.1.2-1.8.2h0Z"/>
    <path class="st1" d="M133.9,21v-10.7h4.4v2.7c.3-1,.7-1.7,1.3-2.1s1.3-.7,2.2-.7l.5,3.8c-.3,0-.7,0-1,0-2,0-3,.8-3,2.4v4.7h-4.5,0Z"/>
    <path class="st1" d="M145.9,9.1c-.7,0-1.2-.2-1.7-.6s-.7-.9-.7-1.6.1-.8.3-1.1.5-.6.9-.8.8-.3,1.2-.3.9,0,1.2.3c.4.2.7.5.9.8s.3.7.3,1.1-.1.8-.4,1.1c-.2.3-.5.6-.9.8-.4.2-.8.3-1.2.3ZM147.7,21.1c-1,0-1.7-.2-2.3-.5s-1-.8-1.3-1.4c-.3-.6-.4-1.2-.4-2v-7h4.5v6.4c0,.3.1.6.3.8s.4.3.7.3.6,0,.9-.3l.2,3c-.3.2-.7.4-1.2.6s-1,.2-1.4.2h0Z"/>
    <path class="st1" d="M159.6,21.1c-.9,0-1.6-.2-2.1-.6-.6-.4-1-.9-1.4-1.6v2h-4.5V6.8l4.5-.7v6.3c.3-.8.8-1.4,1.5-1.8.6-.4,1.3-.6,2-.6,1,0,1.9.2,2.7.7.8.5,1.4,1.1,1.9,1.9.5.8.7,1.8.7,2.9s-.2,2-.7,2.9c-.5.8-1.1,1.5-1.9,2-.8.5-1.7.7-2.7.7ZM158.2,17.8c.6,0,1.1-.2,1.5-.6.4-.4.6-.9.6-1.5s-.2-1.1-.6-1.5-.9-.6-1.5-.6-1.1.2-1.5.6c-.4.4-.6.9-.6,1.5s.2,1.1.6,1.6c.4.4.9.6,1.5.6Z"/>
    <path class="st1" d="M174.7,21.1c-.9,0-1.6-.2-2.1-.6-.6-.4-1-.9-1.4-1.6v2h-4.5V6.8l4.5-.7v6.3c.3-.8.8-1.4,1.5-1.8.6-.4,1.3-.6,2-.6,1,0,1.9.2,2.7.7.8.5,1.4,1.1,1.9,1.9.5.8.7,1.8.7,2.9s-.2,2-.7,2.9c-.5.8-1.1,1.5-1.9,2-.8.5-1.7.7-2.7.7ZM173.3,17.8c.6,0,1.1-.2,1.5-.6.4-.4.6-.9.6-1.5s-.2-1.1-.6-1.5-.9-.6-1.5-.6-1.1.2-1.5.6c-.4.4-.6.9-.6,1.5s.2,1.1.6,1.6c.4.4.9.6,1.5.6Z"/>
    <path class="st1" d="M186,21.1c-1,0-1.8-.2-2.5-.5-.6-.3-1.1-.8-1.4-1.4-.3-.6-.4-1.2-.4-2V6.4l4.5-.7v10.9c0,.3.1.6.3.8s.5.3.8.3.7,0,1-.3l.3,3c-.3.2-.8.4-1.3.6s-1,.2-1.4.2h0Z"/>
    <path class="st1" d="M196.6,18.1c.4,0,.9,0,1.3-.1.5,0,.9-.2,1.4-.5l.5,2.8c-.5.3-1.1.5-1.7.6s-1.3.2-2.1.2c-1.4,0-2.6-.2-3.6-.7-1-.5-1.7-1.1-2.2-2s-.8-1.8-.8-2.9.3-2.1.8-2.9c.5-.8,1.2-1.5,2.1-1.9s1.9-.7,3-.7c1.6,0,2.9.5,3.7,1.5s1.3,2.4,1.3,4.3l-6.4.8c.5,1,1.4,1.4,2.7,1.4h0ZM193.6,14.7l3.4-.7c0-.5-.2-.8-.5-1-.3-.2-.6-.3-1-.3-.6,0-1,.2-1.4.6s-.5.9-.6,1.5h0Z"/>
    <path class="st1" d="M202,21v-10.7h4.4v2.7c.3-1,.7-1.7,1.3-2.1s1.3-.7,2.2-.7l.5,3.8c-.3,0-.7,0-1,0-2,0-3,.8-3,2.4v4.7h-4.5,0Z"/>
    <path class="st1" d="M215.2,21.1c-.6,0-1.3,0-1.9-.2-.7-.1-1.2-.3-1.8-.5l.6-2.7c.3.2.8.3,1.4.4s1.1.2,1.5.2c.7,0,1.1-.2,1.1-.6s-.1-.3-.3-.4-.5-.2-.9-.2-.7-.1-1.1-.3-.8-.3-1.1-.5c-.4-.2-.6-.5-.9-.9s-.3-1-.3-1.6c0-1.1.4-2,1.3-2.7s2.1-1,3.7-1,1.2,0,1.7.1c.5,0,1,.3,1.5.5l-.4,2.6c-.8-.3-1.6-.5-2.4-.5s-.9,0-1.1.1c-.2,0-.4.2-.4.4s.1.3.3.4c.2,0,.5.2.9.2.4,0,.8.2,1.1.3s.8.3,1.1.6c.4.2.7.6.9,1,.2.4.3.9.3,1.6,0,1.1-.4,2-1.3,2.7s-2,1-3.6,1h0Z"/>
  </g>
</svg>